<svg width="103" height="25" viewBox="0 0 103 25" fill="none" xmlns="http://www.w3.org/2000/svg">
<path d="M34.0902 8.64V11.44H37.8502V13.216H34.0902V16.176H38.3302V18H31.8502V6.816H38.3302V8.64H34.0902ZM43.6024 13.536C43.6024 12.64 43.7784 11.8453 44.1304 11.152C44.493 10.4587 44.9784 9.92533 45.5864 9.552C46.205 9.17867 46.893 8.992 47.6504 8.992C48.3117 8.992 48.8877 9.12533 49.3784 9.392C49.8797 9.65867 50.2797 9.99467 50.5784 10.4V9.136H52.8344V18H50.5784V16.704C50.2904 17.12 49.8904 17.4667 49.3784 17.744C48.877 18.0107 48.2957 18.144 47.6344 18.144C46.8877 18.144 46.205 17.952 45.5864 17.568C44.9784 17.184 44.493 16.6453 44.1304 15.952C43.7784 15.248 43.6024 14.4427 43.6024 13.536ZM50.5784 13.568C50.5784 13.024 50.4717 12.56 50.2584 12.176C50.045 11.7813 49.757 11.4827 49.3944 11.28C49.0317 11.0667 48.6424 10.96 48.2264 10.96C47.8104 10.96 47.4264 11.0613 47.0744 11.264C46.7224 11.4667 46.4344 11.7653 46.2104 12.16C45.997 12.544 45.8904 13.0027 45.8904 13.536C45.8904 14.0693 45.997 14.5387 46.2104 14.944C46.4344 15.3387 46.7224 15.6427 47.0744 15.856C47.437 16.0693 47.821 16.176 48.2264 16.176C48.6424 16.176 49.0317 16.0747 49.3944 15.872C49.757 15.6587 50.045 15.36 50.2584 14.976C50.4717 14.5813 50.5784 14.112 50.5784 13.568ZM58.4941 8.992C59.1555 8.992 59.7368 9.12533 60.2381 9.392C60.7395 9.648 61.1341 9.984 61.4221 10.4V9.136H63.6781V18.064C63.6781 18.8853 63.5128 19.616 63.1821 20.256C62.8515 20.9067 62.3555 21.4187 61.6941 21.792C61.0328 22.176 60.2328 22.368 59.2941 22.368C58.0355 22.368 57.0008 22.0747 56.1901 21.488C55.3901 20.9013 54.9368 20.1013 54.8301 19.088H57.0541C57.1715 19.4933 57.4221 19.8133 57.8061 20.048C58.2008 20.2933 58.6755 20.416 59.2301 20.416C59.8808 20.416 60.4088 20.2187 60.8141 19.824C61.2195 19.44 61.4221 18.8533 61.4221 18.064V16.688C61.1341 17.104 60.7341 17.4507 60.2221 17.728C59.7208 18.0053 59.1448 18.144 58.4941 18.144C57.7475 18.144 57.0648 17.952 56.4461 17.568C55.8275 17.184 55.3368 16.6453 54.9741 15.952C54.6221 15.248 54.4461 14.4427 54.4461 13.536C54.4461 12.64 54.6221 11.8453 54.9741 11.152C55.3368 10.4587 55.8221 9.92533 56.4301 9.552C57.0488 9.17867 57.7368 8.992 58.4941 8.992ZM61.4221 13.568C61.4221 13.024 61.3155 12.56 61.1021 12.176C60.8888 11.7813 60.6008 11.4827 60.2381 11.28C59.8755 11.0667 59.4861 10.96 59.0701 10.96C58.6541 10.96 58.2701 11.0613 57.9181 11.264C57.5661 11.4667 57.2781 11.7653 57.0541 12.16C56.8408 12.544 56.7341 13.0027 56.7341 13.536C56.7341 14.0693 56.8408 14.5387 57.0541 14.944C57.2781 15.3387 57.5661 15.6427 57.9181 15.856C58.2808 16.0693 58.6648 16.176 59.0701 16.176C59.4861 16.176 59.8755 16.0747 60.2381 15.872C60.6008 15.6587 60.8888 15.36 61.1021 14.976C61.3155 14.5813 61.4221 14.112 61.4221 13.568ZM69.8019 18.144C68.9485 18.144 68.1805 17.9573 67.4979 17.584C66.8152 17.2 66.2765 16.6613 65.8819 15.968C65.4979 15.2747 65.3059 14.4747 65.3059 13.568C65.3059 12.6613 65.5032 11.8613 65.8979 11.168C66.3032 10.4747 66.8525 9.94133 67.5459 9.568C68.2392 9.184 69.0125 8.992 69.8659 8.992C70.7192 8.992 71.4925 9.184 72.1859 9.568C72.8792 9.94133 73.4232 10.4747 73.8179 11.168C74.2232 11.8613 74.4259 12.6613 74.4259 13.568C74.4259 14.4747 74.2179 15.2747 73.8019 15.968C73.3965 16.6613 72.8419 17.2 72.1379 17.584C71.4445 17.9573 70.6659 18.144 69.8019 18.144ZM69.8019 16.192C70.2072 16.192 70.5859 16.096 70.9379 15.904C71.3005 15.7013 71.5885 15.4027 71.8019 15.008C72.0152 14.6133 72.1219 14.1333 72.1219 13.568C72.1219 12.7253 71.8979 12.08 71.4499 11.632C71.0125 11.1733 70.4739 10.944 69.8339 10.944C69.1939 10.944 68.6552 11.1733 68.2179 11.632C67.7912 12.08 67.5779 12.7253 67.5779 13.568C67.5779 14.4107 67.7859 15.0613 68.2019 15.52C68.6285 15.968 69.1619 16.192 69.8019 16.192ZM78.309 10.512C78.597 10.0427 78.9703 9.67467 79.429 9.408C79.8983 9.14133 80.4317 9.008 81.029 9.008V11.36H80.437C79.733 11.36 79.1997 11.5253 78.837 11.856C78.485 12.1867 78.309 12.7627 78.309 13.584V18H76.069V9.136H78.309V10.512ZM81.9617 13.536C81.9617 12.64 82.1377 11.8453 82.4897 11.152C82.8524 10.4587 83.3377 9.92533 83.9457 9.552C84.5644 9.17867 85.2524 8.992 86.0097 8.992C86.6711 8.992 87.2471 9.12533 87.7377 9.392C88.2391 9.65867 88.6391 9.99467 88.9377 10.4V9.136H91.1937V18H88.9377V16.704C88.6497 17.12 88.2497 17.4667 87.7377 17.744C87.2364 18.0107 86.6551 18.144 85.9937 18.144C85.2471 18.144 84.5644 17.952 83.9457 17.568C83.3377 17.184 82.8524 16.6453 82.4897 15.952C82.1377 15.248 81.9617 14.4427 81.9617 13.536ZM88.9377 13.568C88.9377 13.024 88.8311 12.56 88.6177 12.176C88.4044 11.7813 88.1164 11.4827 87.7537 11.28C87.3911 11.0667 87.0017 10.96 86.5857 10.96C86.1697 10.96 85.7857 11.0613 85.4337 11.264C85.0817 11.4667 84.7937 11.7653 84.5697 12.16C84.3564 12.544 84.2497 13.0027 84.2497 13.536C84.2497 14.0693 84.3564 14.5387 84.5697 14.944C84.7937 15.3387 85.0817 15.6427 85.4337 15.856C85.7964 16.0693 86.1804 16.176 86.5857 16.176C87.0017 16.176 87.3911 16.0747 87.7537 15.872C88.1164 15.6587 88.4044 15.36 88.6177 14.976C88.8311 14.5813 88.9377 14.112 88.9377 13.568ZM96.5015 6.448C97.6108 6.448 98.5015 6.752 99.1735 7.36C99.8562 7.95733 100.197 8.784 100.197 9.84C100.197 10.8853 99.8615 11.6853 99.1895 12.24C98.5175 12.784 97.6268 13.056 96.5175 13.056L96.4535 14.288H94.4855L94.4055 11.568H95.1255C96.0535 11.568 96.7682 11.4453 97.2695 11.2C97.7708 10.9547 98.0215 10.5067 98.0215 9.856C98.0215 9.38667 97.8828 9.01333 97.6055 8.736C97.3388 8.45867 96.9708 8.32 96.5015 8.32C96.0108 8.32 95.6268 8.45333 95.3495 8.72C95.0828 8.98667 94.9495 9.35467 94.9495 9.824H92.8375C92.8268 9.17333 92.9655 8.592 93.2535 8.08C93.5415 7.568 93.9628 7.168 94.5175 6.88C95.0828 6.592 95.7442 6.448 96.5015 6.448ZM95.4615 18.112C95.0562 18.112 94.7202 17.9893 94.4535 17.744C94.1975 17.488 94.0695 17.1733 94.0695 16.8C94.0695 16.4267 94.1975 16.1173 94.4535 15.872C94.7202 15.616 95.0562 15.488 95.4615 15.488C95.8562 15.488 96.1815 15.616 96.4375 15.872C96.6935 16.1173 96.8215 16.4267 96.8215 16.8C96.8215 17.1733 96.6935 17.488 96.4375 17.744C96.1815 17.9893 95.8562 18.112 95.4615 18.112Z" fill="#FF725E"/>
<path d="M1.00938 13.1714C0.36888 13.8811 0.0106224 14.8009 0.00236734 15.7568C-0.022366 16.7235 0.146919 17.6853 0.500214 18.5855C1.3375 20.6108 4.24536 22.0987 6.37816 22.4834C8.51097 22.8681 12.9463 24.0448 18.2868 22.5456C22.3318 21.4141 25.2566 19.6321 25.2283 15.6211C25.2 11.61 21.0306 9.39801 12.1373 9.09818C5.88032 8.87188 2.47462 11.5987 1.00938 13.1714Z" fill="#EB996E"/>
<path opacity="0.2" d="M25.2283 15.6267C25.2238 15.2458 25.1783 14.8665 25.0926 14.4953C25.019 15.6267 24.0686 16.5489 22.9654 17.1768C21.0868 18.2564 19.0822 19.1001 16.997 19.6887C14.9521 20.207 12.8547 20.4898 10.7456 20.5316C8.48763 20.5392 6.25278 20.0768 4.18314 19.1739C2.1748 18.3536 0.46629 17.1825 0.0815923 15.078C0.0360606 15.309 0.0133164 15.544 0.0136987 15.7795C-0.00906078 16.746 0.160156 17.7075 0.511545 18.6081C1.34883 20.6335 4.25103 22.1157 6.38384 22.506C8.51665 22.8964 12.9407 24.0561 18.2642 22.5683C22.3318 21.4198 25.2566 19.6378 25.2283 15.6267Z" fill="black"/>
<g opacity="0.3">
<path d="M22.6486 13.013C21.8421 12.152 20.8209 11.5212 19.6898 11.1857C17.4882 10.4389 15.1191 10.3369 12.8614 10.8916L3.88895 12.1644C3.66566 12.5452 3.53236 12.972 3.49922 13.4122C3.46608 13.8523 3.53397 14.2942 3.69772 14.7041C3.86147 15.1141 4.11674 15.4811 4.44402 15.7773C4.77131 16.0735 5.16196 16.291 5.58614 16.4131C5.78832 16.924 6.16573 17.3463 6.65083 17.6044C7.13593 17.8625 7.69705 17.9396 8.23376 17.8218C8.65138 17.647 9.09116 17.5309 9.5406 17.4767C9.99318 17.4767 10.4627 17.7369 10.8757 17.5446C11.1303 17.4257 11.2831 17.1599 11.4754 16.9505C11.7483 16.6532 12.1206 16.466 12.522 16.4244C13.4385 16.3282 14.4059 16.9901 15.2375 16.5772C15.4731 16.7895 15.7635 16.9317 16.0758 16.9874C16.3881 17.0431 16.7097 17.0102 17.0042 16.8924C17.2987 16.7746 17.5543 16.5766 17.742 16.3209C17.9297 16.0652 18.042 15.762 18.0662 15.4457C18.3536 15.617 18.6896 15.6888 19.0219 15.6499C19.3543 15.611 19.6646 15.4637 19.9048 15.2307C20.4854 15.4812 21.1111 15.6102 21.7434 15.6098C22.0605 15.6034 22.368 15.5003 22.6249 15.3142C22.8817 15.1282 23.0755 14.8681 23.1804 14.5688C23.2181 14.286 23.1897 13.9983 23.0974 13.7284C23.0052 13.4584 22.8515 13.2136 22.6486 13.013Z" fill="black"/>
</g>
<path d="M24.6739 13.3299C24.691 13.349 24.7062 13.3699 24.7192 13.3921L24.8436 13.5901C24.9859 13.847 25.0654 14.1339 25.0756 14.4274C25.0583 14.9019 24.8964 15.3598 24.6117 15.7399C24.2471 16.2492 23.7857 16.6818 23.2539 17.0128C22.6882 17.3748 21.9923 17.7256 21.2626 18.082C20.5328 18.4384 19.7294 18.7779 18.8752 19.0947C17.9773 19.4256 17.0589 19.6977 16.1257 19.9093C15.1215 20.1269 14.1052 20.2837 13.0821 20.3789C12.556 20.4298 12.0355 20.4694 11.5263 20.4977C11.0172 20.526 10.508 20.5486 10.0102 20.5316C9.0561 20.4939 8.10834 20.3594 7.1815 20.13C6.3384 19.93 5.51039 19.671 4.7036 19.3549C3.99452 19.0962 3.30928 18.7763 2.65565 18.3988C2.1171 18.094 1.62548 17.7129 1.19606 17.2674C0.865088 16.9312 0.588353 16.5457 0.375753 16.1246C0.256613 15.8536 0.165621 15.5712 0.104204 15.2816L0.0589447 15.0497C0.0603815 15.0252 0.0603815 15.0006 0.0589447 14.9761V15.0497C0.0589447 15.1063 0.0872292 15.1798 0.109858 15.276C0.28807 16.0189 0.658804 16.7019 1.18475 17.256C1.6148 17.7009 2.10631 18.0819 2.64434 18.3875C3.30501 18.7581 3.99576 19.0722 4.70926 19.3266C5.50861 19.6318 6.32686 19.885 7.15887 20.0847C8.08592 20.3122 9.03367 20.4448 9.98753 20.4807C10.4797 20.4807 10.9889 20.4807 11.498 20.4468C12.0072 20.4128 12.5277 20.3789 13.0538 20.328C14.0731 20.2328 15.0858 20.076 16.0861 19.8584C17.0246 19.6506 17.9487 19.3823 18.8525 19.0551C19.7068 18.7439 20.5045 18.3988 21.2399 18.0537C21.9754 17.7086 22.6429 17.3522 23.2313 16.9958C23.7593 16.669 24.2186 16.2424 24.5834 15.7399C24.8633 15.3633 25.0265 14.9128 25.053 14.4444C25.0521 14.1501 24.9844 13.86 24.8549 13.5958L24.7361 13.3978L24.6739 13.3299Z" fill="#263238"/>
<path d="M1.39408 16.9053L1.35448 16.8713C1.35448 16.8713 1.29225 16.8091 1.25265 16.7582C1.13388 16.6142 1.02965 16.4588 0.941495 16.2943C0.636414 15.7535 0.520915 15.1262 0.613369 14.5122C0.718088 13.8986 1.0271 13.3384 1.49025 12.9225C1.62812 12.7971 1.7778 12.6853 1.93719 12.5887L2.0673 12.5152C2.10125 12.5152 2.11822 12.5152 2.11822 12.5152C1.91544 12.6495 1.72599 12.803 1.55249 12.9734C1.11025 13.3915 0.814631 13.9411 0.709543 14.5405C0.623464 15.1402 0.728376 15.7519 1.00939 16.2886C1.12277 16.5031 1.25132 16.7092 1.39408 16.9053Z" fill="white"/>
<path d="M2.59341 17.884C2.45605 17.835 2.32649 17.7664 2.20872 17.6803C2.08254 17.6121 1.96796 17.5242 1.86928 17.4201C2.00636 17.4658 2.13457 17.5347 2.24832 17.6238C2.377 17.6908 2.49362 17.7787 2.59341 17.884Z" fill="white"/>
<path d="M11.498 5.40394C13.0255 6.4958 14.0325 6.58632 15.3167 7.25389C16.8492 7.96895 18.5723 8.16746 20.2273 7.81962C21.0136 7.68384 21.9245 7.44058 22.5468 7.91579C22.6825 8.01762 22.7957 8.14774 22.9315 8.25523C23.1092 8.37919 23.2987 8.48531 23.4972 8.57204C23.9187 8.72627 24.2703 9.02765 24.4872 9.42064C24.6569 9.83362 24.3797 10.4333 23.9215 10.3937C24.1138 10.4899 24.1138 10.784 24.0063 10.9594C23.8989 11.1348 23.7178 11.2989 23.633 11.4969C23.5387 11.8053 23.5527 12.1366 23.6726 12.436C23.8452 12.4736 24.008 12.5473 24.1502 12.6521C24.2924 12.757 24.4109 12.8907 24.4979 13.0445C24.585 13.1982 24.6386 13.3686 24.6553 13.5445C24.6719 13.7205 24.6513 13.8979 24.5947 14.0653C24.5256 14.206 24.467 14.3516 24.4193 14.5009C24.4079 14.678 24.4079 14.8556 24.4193 15.0327C24.3858 15.2725 24.264 15.4913 24.0778 15.6461C23.8915 15.8009 23.6543 15.8808 23.4123 15.87C23.3578 16.137 23.2229 16.3809 23.0257 16.569C22.8285 16.7571 22.5785 16.8804 22.3092 16.9222C22.4134 16.9709 22.4959 17.0566 22.5406 17.1626C22.5852 17.2687 22.5889 17.3875 22.5508 17.4961C22.5127 17.6047 22.4356 17.6953 22.3345 17.7502C22.2334 17.8052 22.1155 17.8206 22.0037 17.7935C22.0495 17.9859 22.0515 18.1862 22.0094 18.3795C21.9673 18.5728 21.8822 18.7541 21.7605 18.9101C21.6388 19.066 21.4836 19.1926 21.3063 19.2803C21.129 19.3681 20.9342 19.4149 20.7364 19.4171C20.5201 19.9788 20.1055 20.4417 19.571 20.7183C19.3474 20.9127 19.0638 21.0245 18.7677 21.0351C18.2868 21.0012 17.987 20.4694 17.5287 20.3279C17.3307 20.2657 17.1101 20.2827 16.9121 20.2318C16.7141 20.1808 16.5048 20.0111 16.5161 19.8018C16.443 19.908 16.3359 19.9861 16.2125 20.0231C16.089 20.0602 15.9566 20.0539 15.8372 20.0055C15.6095 19.8825 15.4153 19.7057 15.2715 19.4907C15.4064 19.8528 15.4001 20.2524 15.2539 20.6102C15.1077 20.9679 14.8323 21.2575 14.4823 21.4215C14.1323 21.5854 13.7335 21.6117 13.365 21.495C12.9966 21.3783 12.6856 21.1273 12.4937 20.7918C12.4206 20.9042 12.3099 20.9869 12.1814 21.0253C12.0529 21.0636 11.915 21.0551 11.7922 21.0012C11.5482 20.8998 11.3312 20.7429 11.1586 20.5429C10.9436 20.8428 10.6664 21.1765 10.2987 21.1596C10.1842 21.143 10.068 21.143 9.95359 21.1596C9.76124 21.1935 9.6594 21.3915 9.54626 21.5499C9.42174 21.7331 9.25236 21.8812 9.05427 21.9803C8.85619 22.0793 8.63602 22.1259 8.4148 22.1156C8.19552 22.095 7.98834 22.0057 7.82277 21.8604C7.6572 21.7152 7.54168 21.5214 7.49265 21.3067C7.43129 21.4474 7.32405 21.5631 7.18842 21.6351C7.0528 21.707 6.8968 21.7308 6.74589 21.7027C6.59663 21.6665 6.46353 21.5819 6.36734 21.4622C6.27115 21.3425 6.21727 21.1943 6.2141 21.0408C5.86335 21.2105 5.45602 20.9276 5.22407 20.6108C5.01204 20.3165 4.86166 19.9824 4.78194 19.6285C4.70222 19.2747 4.69482 18.9083 4.76017 18.5515C4.71476 18.6046 4.65916 18.6479 4.59666 18.679C4.53417 18.71 4.46605 18.7282 4.39638 18.7325C4.32671 18.7367 4.2569 18.7269 4.1911 18.7035C4.12531 18.6802 4.06489 18.6439 4.01341 18.5968C3.81174 18.3954 3.67735 18.1365 3.62871 17.8557C3.56795 18.0611 3.43761 18.2389 3.26006 18.3586C3.08251 18.4784 2.86881 18.5326 2.65565 18.5119C2.44587 18.4696 2.25106 18.3725 2.09106 18.2304C1.93106 18.0882 1.81159 17.9063 1.74482 17.7029C1.61523 17.2957 1.56153 16.868 1.58641 16.4414C1.53424 15.7069 1.62453 14.9692 1.85231 14.269C2.0291 13.8778 2.24923 13.5078 2.50856 13.1658C2.85044 12.6386 3.2285 12.1358 3.64002 11.6609C4.6756 10.68 5.81359 9.81325 7.03441 9.07554C8.25073 8.20431 9.85741 7.07285 10.3666 5.76035C10.525 5.34737 10.5363 4.92873 10.6042 4.8665C10.6721 4.80427 11.5093 5.40394 11.5093 5.40394" fill="#455A64"/>
<path d="M10.6155 4.86652L10.6834 4.90612L10.9493 5.07584C11.1756 5.22293 11.515 5.44357 11.8997 5.72643C12.6974 6.29216 13.7666 7.08984 15.0225 7.87621C15.6032 8.25644 16.2189 8.58038 16.8612 8.84361C17.3904 9.05103 17.9405 9.20087 18.5018 9.29054C18.8758 9.35196 19.2542 9.38223 19.6333 9.38106H19.984H19.6729C19.2943 9.38903 18.9157 9.36443 18.5414 9.30751C17.9765 9.22025 17.4226 9.0723 16.8895 8.86624C16.2419 8.60665 15.6221 8.28255 15.0395 7.89884C13.7779 7.11247 12.7087 6.29782 11.9223 5.73209L10.9832 5.07018L10.723 4.89481L10.6551 4.84955L10.6155 4.86652Z" fill="white"/>
<path d="M19.0336 10.1844H18.96L18.6885 10.1052C18.4509 10.0316 18.1227 9.94111 17.6815 9.82796C17.1777 9.70241 16.6856 9.53396 16.2106 9.32446C15.6329 9.0239 15.0983 8.64716 14.6209 8.20431C13.5799 7.35006 12.6408 6.57501 11.9506 6.01493L11.1473 5.37566L10.9267 5.18896L10.8757 5.14371L10.938 5.18896L11.1586 5.36434L11.9789 6.02059L14.6605 8.193C15.1269 8.62037 15.6482 8.98375 16.2106 9.27355C16.6824 9.48441 17.1705 9.65658 17.6702 9.78836C18.0945 9.90716 18.4396 10.0033 18.6715 10.0769L18.9431 10.1674H19.011L19.0336 10.1844Z" fill="white"/>
<path d="M19.3787 15.5588H19.3447L19.2542 15.5023C19.1807 15.4514 19.0619 15.3835 18.9204 15.2816C18.5139 15.0022 18.1265 14.6961 17.7607 14.3651C17.5287 14.1558 17.2855 13.9182 17.0365 13.6467C16.768 13.3546 16.515 13.0487 16.2785 12.7302C15.7338 12.0095 15.2691 11.2318 14.8924 10.4107C14.6831 9.98073 14.4908 9.56209 14.2645 9.17739C14.0455 8.80629 13.8037 8.44918 13.5403 8.10816C13.0425 7.45191 12.5446 6.8975 12.126 6.43925C11.7074 5.98101 11.3453 5.6246 11.102 5.37568L10.8248 5.08716L10.7513 5.01361L10.8248 5.08716L11.1133 5.36436C11.3623 5.61329 11.7187 5.9697 12.1486 6.42228C12.6532 6.95044 13.131 7.50367 13.5799 8.07987C13.8433 8.42287 14.0851 8.78185 14.3041 9.15476C14.5304 9.53946 14.7284 9.96376 14.9377 10.3937C15.3142 11.1936 15.773 11.952 16.3068 12.6566C16.5557 12.9848 16.8103 13.2789 17.0535 13.5505C17.2968 13.822 17.5457 14.0597 17.7777 14.269C18.1365 14.5999 18.5143 14.9097 18.9091 15.1968L19.2372 15.4231L19.3278 15.4853L19.3787 15.5588Z" fill="white"/>
<path d="M14.2475 17.256C14.2487 17.2448 14.2487 17.2334 14.2475 17.2221V17.1203C14.2475 17.0297 14.2475 16.8996 14.2475 16.7356C14.2475 16.3961 14.2475 15.9096 14.2475 15.3099C14.2475 14.7102 14.2475 13.9918 14.1796 13.1997C14.1796 12.7981 14.1004 12.3851 14.0382 11.9608C13.9671 11.5186 13.8727 11.0805 13.7553 10.6483C13.7553 10.5408 13.6931 10.4277 13.6591 10.3202C13.6252 10.2127 13.5969 10.1052 13.5573 10.0034C13.4837 9.79404 13.4102 9.58472 13.3253 9.38671C13.1556 8.98504 12.9633 8.61732 12.7596 8.25525C12.3806 7.55374 11.9959 6.94841 11.6678 6.44491C11.3396 5.94141 11.0568 5.53974 10.8644 5.26819L10.6438 4.95138L10.5872 4.86652L10.6494 4.94572C10.706 5.01927 10.7852 5.1211 10.8814 5.25687C11.0794 5.53408 11.3623 5.93009 11.696 6.42794C12.0298 6.92578 12.4202 7.5594 12.8275 8.23828C13.0367 8.60474 13.2256 8.98247 13.3932 9.36974C13.4838 9.56775 13.5573 9.77707 13.6308 9.98639C13.6704 10.0939 13.7044 10.2014 13.7383 10.3145C13.7723 10.4277 13.8062 10.5295 13.8345 10.6426C13.9501 11.0749 14.0426 11.513 14.1117 11.9551C14.1739 12.3851 14.2249 12.8037 14.2531 13.1997C14.3154 13.9918 14.3154 14.7102 14.3097 15.3156C14.3041 15.9209 14.3097 16.4074 14.2701 16.7412V17.1316V17.2277L14.2475 17.256Z" fill="white"/>
<path d="M8.47137 18.4158C8.47016 18.4045 8.47016 18.3931 8.47137 18.3818V18.28C8.47137 18.1895 8.52229 18.0594 8.57321 17.8897C8.66373 17.5502 8.81082 17.0637 9.0258 16.4753C9.24078 15.887 9.50101 15.1855 9.76124 14.3991C9.89136 14.0087 10.0158 13.5901 10.1233 13.1545C10.2267 12.7013 10.3022 12.2422 10.3496 11.7798C10.4392 10.8869 10.4807 9.98985 10.4741 9.09253C10.4741 8.26656 10.4741 7.5198 10.4741 6.89184C10.4741 6.26387 10.5023 5.76037 10.5306 5.40396C10.5306 5.22858 10.5306 5.09847 10.5646 5.00229V4.90046V4.86652V5.00229C10.5646 5.09847 10.5646 5.23424 10.5363 5.40962C10.5363 5.75472 10.5363 6.26387 10.5024 6.89184C10.4684 7.5198 10.5024 8.26656 10.5024 9.09253C10.5137 9.99168 10.4741 10.8908 10.3835 11.7854C10.3371 12.2502 10.2596 12.7113 10.1516 13.1658C10.0498 13.6071 9.91965 14.0257 9.78953 14.4161C9.52364 15.2024 9.25208 15.8983 9.03711 16.4866C8.82213 17.075 8.66373 17.5559 8.56756 17.8953C8.51664 18.0594 8.48835 18.1951 8.46007 18.28L8.43178 18.3818C8.44655 18.3912 8.45988 18.4026 8.47137 18.4158Z" fill="white"/>
<path d="M10.0271 16.7412C10.0271 16.7412 10.0271 16.6847 10.0271 16.5828C10.0271 16.481 10.0724 16.3282 10.1007 16.1415C10.1573 15.7738 10.2138 15.2647 10.2421 14.6933C10.2704 14.1219 10.2704 13.6071 10.2421 13.2337V12.7924C10.2384 12.7378 10.2384 12.683 10.2421 12.6284C10.2493 12.6828 10.2493 12.738 10.2421 12.7924C10.2421 12.8943 10.2421 13.047 10.2421 13.2337C10.2421 13.6071 10.2421 14.1219 10.2421 14.6933C10.2199 15.1826 10.1669 15.6701 10.0837 16.1529C10.0498 16.3339 10.0215 16.481 9.99319 16.5828C10.0115 16.6339 10.0229 16.6871 10.0271 16.7412Z" fill="white"/>
<path d="M6.03873 15.4231L6.09529 15.3439L6.25936 15.1345C6.33291 15.044 6.41776 14.9309 6.51394 14.8008C6.61011 14.6706 6.72891 14.5179 6.84772 14.3482C7.09098 14.0144 7.36254 13.6071 7.66237 13.1432C7.96221 12.6793 8.26205 12.1644 8.5732 11.6157C8.88435 11.0669 9.13893 10.5295 9.39916 10.0373C9.6594 9.54511 9.84609 9.09819 10.0102 8.71349C10.095 8.5268 10.1686 8.35142 10.2308 8.19867C10.293 8.04593 10.3439 7.91581 10.3892 7.80832L10.4854 7.56505L10.525 7.48019C10.525 7.48019 10.525 7.50848 10.4967 7.56505L10.4062 7.81963C10.3722 7.92712 10.3213 8.05724 10.2591 8.20999C10.1968 8.36273 10.129 8.53811 10.0441 8.73046C9.88569 9.11516 9.68203 9.56208 9.44442 10.0599C9.20682 10.5578 8.92961 11.0896 8.62411 11.644C8.31862 12.1984 8.00181 12.7132 7.70197 13.1715C7.40213 13.6297 7.13624 14.0427 6.87601 14.3708C6.7572 14.5405 6.6384 14.6876 6.53656 14.8177C6.43473 14.9478 6.34988 15.061 6.27633 15.1515L6.10096 15.3552L6.03873 15.4231Z" fill="white"/>
<path d="M2.21439 17.5841C2.18109 17.5391 2.15084 17.4918 2.12388 17.4427C2.11095 17.4151 2.09582 17.3887 2.07862 17.3635L2.03902 17.2617L1.98811 17.1485C1.97156 17.1063 1.95831 17.0627 1.9485 17.0184C1.8807 16.7999 1.84078 16.5737 1.8297 16.3452C1.81273 16.0674 1.82601 15.7885 1.8693 15.5136C1.94682 15.0125 2.10946 14.5285 2.35017 14.0823C2.39543 13.9974 2.44069 13.9239 2.48029 13.856L2.59343 13.6919L2.69527 13.5618C2.67342 13.6143 2.64489 13.6637 2.6104 13.7089C2.57016 13.7594 2.53599 13.8145 2.50858 13.8729C2.46898 13.9408 2.42372 14.0144 2.38412 14.0992C2.15846 14.5479 2.00387 15.0288 1.92587 15.5249C1.88178 15.796 1.86473 16.0707 1.87496 16.3452C1.88886 16.5688 1.92485 16.7906 1.98244 17.0071C2.04508 17.205 2.12262 17.3979 2.21439 17.5841Z" fill="white"/>
<path d="M4.01906 18.2347C3.94213 18.1247 3.89001 17.9992 3.86631 17.867C3.83464 17.7369 3.83464 17.6011 3.86631 17.471C3.86631 17.471 3.8946 17.6464 3.93986 17.8557C3.98512 18.065 4.03037 18.2291 4.01906 18.2347Z" fill="white"/>
<path d="M5.48432 20.2827C5.48432 20.2827 5.45603 20.2827 5.41643 20.2318C5.36678 20.1852 5.31958 20.1361 5.275 20.0847C5.20797 19.99 5.14929 19.8897 5.09962 19.7848C5.03916 19.6586 4.99359 19.5257 4.96384 19.3888C4.93288 19.2495 4.9177 19.1072 4.91859 18.9645C4.92138 18.8504 4.93464 18.7368 4.95819 18.6251C4.97444 18.5479 4.99715 18.4722 5.02608 18.3988L5.06002 18.3253C5.06002 18.3253 5.06002 18.4384 4.99779 18.6308C4.97873 18.741 4.96927 18.8527 4.96951 18.9645C4.97431 19.1031 4.98943 19.2412 5.01476 19.3775C5.047 19.5111 5.09054 19.6417 5.14488 19.7679C5.19004 19.871 5.24497 19.9695 5.30894 20.0621C5.40512 20.1922 5.48997 20.277 5.48432 20.2827Z" fill="white"/>
<path d="M8.16587 21.6687C8.03718 21.5949 7.94043 21.476 7.89432 21.335C7.84223 21.1964 7.84223 21.0436 7.89432 20.905C7.9056 21.0433 7.93216 21.1799 7.97353 21.3123C8.02504 21.4375 8.0895 21.557 8.16587 21.6687Z" fill="white"/>
<path d="M11.7752 20.6504C11.7752 20.6504 11.7073 20.6108 11.6394 20.509C11.5472 20.3786 11.4835 20.2301 11.4528 20.0734C11.4209 19.9185 11.4209 19.7587 11.4528 19.6038C11.4642 19.5381 11.4872 19.4749 11.5206 19.4171C11.5206 19.4171 11.5206 19.4907 11.4924 19.6095C11.4619 19.7588 11.4619 19.9127 11.4924 20.062C11.5206 20.2123 11.5762 20.3561 11.6564 20.4863C11.73 20.6051 11.7809 20.6504 11.7752 20.6504Z" fill="white"/>
<path d="M13.0595 21.0578C13.0595 21.0578 13.0595 21.0578 13.0085 20.9955C12.964 20.9397 12.926 20.879 12.8954 20.8145C12.8436 20.7204 12.8055 20.6195 12.7822 20.5146C12.7181 20.2603 12.7181 19.994 12.7822 19.7396C12.805 19.6344 12.8391 19.5319 12.8841 19.4341C12.9127 19.3691 12.9468 19.3067 12.9859 19.2474L13.0368 19.1852C13.0368 19.1852 12.9859 19.2814 12.918 19.4511C12.88 19.5461 12.8516 19.6446 12.8332 19.7453C12.8071 19.8698 12.7957 19.9971 12.7992 20.1243C12.8018 20.2518 12.8169 20.3788 12.8445 20.5033C12.868 20.6047 12.9021 20.7033 12.9463 20.7975C13.0029 20.9616 13.0651 21.0521 13.0595 21.0578Z" fill="white"/>
<g opacity="0.3">
<path d="M4.79979 10.3937C4.68098 10.8293 4.53389 11.231 4.91859 11.4686C5.30328 11.7062 5.75587 11.808 6.14057 12.0343C6.3446 12.1306 6.5136 12.288 6.6241 12.4847C6.73461 12.6813 6.78113 12.9075 6.75721 13.1319C6.70064 13.3921 6.49698 13.6354 6.58184 13.8899C6.98961 13.5329 7.28121 13.062 7.41912 12.5378L8.38087 13.2507C8.5893 13.3797 8.76234 13.5585 8.88437 13.7711C9.22947 14.5066 8.28469 15.3608 8.57887 16.1189C8.88336 15.6266 9.11578 15.0931 9.26906 14.5349C9.76691 15.1006 8.98054 16.1585 9.50667 16.7073C9.61416 16.1925 9.69902 15.672 9.76691 15.1459C10.3103 15.9955 10.9094 16.8081 11.5603 17.5785C11.7027 17.7877 11.8979 17.9555 12.126 18.065C12.6917 18.263 13.2575 17.7143 13.6252 17.2278L13.8628 17.7652C14.1853 17.5446 14.0947 17.0411 14.2701 16.696C14.4563 16.4293 14.7245 16.2306 15.0339 16.1302C16.0974 15.638 17.2968 15.1345 18.4283 15.5645C18.3808 15.5181 18.3437 15.4622 18.3195 15.4004C18.2952 15.3386 18.2844 15.2724 18.2876 15.2061C18.2908 15.1398 18.308 15.075 18.3381 15.0158C18.3682 14.9567 18.4105 14.9046 18.4622 14.863C18.6841 14.7088 18.9406 14.6117 19.209 14.5801C20.5164 14.2542 21.6905 13.5308 22.5694 12.5096C23.4633 11.5139 24.0346 9.7601 23.6669 8.67389C23.0621 8.49695 22.4358 8.40368 21.8057 8.39669C20.8496 8.39669 14.2475 8.96242 14.2475 8.96242L8.76556 8.07422L4.79979 10.3937Z" fill="black"/>
</g>
<path d="M23.5594 14.2633C23.8197 13.6976 23.797 11.1122 23.1521 10.586C21.6359 9.35275 17.9247 10.3428 14.6096 10.0203C11.4157 9.7267 8.19501 10.0279 5.11093 10.9085C4.30193 11.1631 2.1182 10.7614 1.56379 11.1518C1.38873 12.0096 1.34675 12.8892 1.43933 13.7598C1.45005 14.3693 1.62695 14.9644 1.95096 15.4808C2.27497 15.9972 2.73379 16.4154 3.27795 16.6903C6.03547 17.9512 9.03163 18.6052 12.0638 18.6081C15.0169 18.6081 19.2372 17.8387 20.8948 17.041C22.1033 16.4868 23.0559 15.4938 23.5594 14.2633Z" fill="#FF725E"/>
<path d="M23.4463 11.5421C23.2313 9.08686 19.3447 7.86488 14.6152 7.41229C11.4213 7.12169 8.20123 7.42279 5.11659 8.30049C3.24968 8.90016 2.05033 9.83928 1.5638 11.1291C1.5349 11.7291 1.67965 12.3247 1.98067 12.8444C2.2817 13.3642 2.72623 13.7861 3.26099 14.0596C6.04787 15.3696 9.08096 16.0734 12.1599 16.1246C15.1131 16.1246 19.2486 15.2194 20.9062 14.4274C22.5637 13.6353 23.5085 12.2097 23.4463 11.5421Z" fill="#FF725E"/>
<path opacity="0.3" d="M14.2418 8.13644C13.5926 9.25187 12.8467 10.3082 12.0128 11.2932C11.2686 12.3483 10.4339 13.3364 9.51796 14.2463C10.1677 13.1295 10.9135 12.0713 11.7469 11.0839C12.4902 10.0299 13.3251 9.04359 14.2418 8.13644Z" fill="black"/>
<path opacity="0.3" d="M17.7777 8.39101C17.156 9.45734 16.4383 10.4647 15.6335 11.4007C14.9154 12.4146 14.1068 13.3613 13.2179 14.2294C13.1443 14.1671 14.1061 12.8207 15.362 11.214C16.6179 9.60733 17.7211 8.33443 17.7777 8.39101Z" fill="black"/>
<path opacity="0.3" d="M20.8269 9.48855C20.4191 10.3535 19.8895 11.1555 19.2542 11.8703C18.7059 12.6537 18.0465 13.3531 17.2968 13.9465C17.7931 13.1426 18.3611 12.3852 18.994 11.6836C19.984 10.4333 20.7477 9.43198 20.8269 9.48855Z" fill="black"/>
<path opacity="0.3" d="M9.87439 8.2326C9.39323 9.26285 8.78711 10.23 8.06971 11.1122C7.43562 12.0605 6.68697 12.9269 5.84073 13.6919C5.76718 13.6297 6.678 12.4134 7.78118 10.9142C8.88436 9.41498 9.80085 8.20432 9.87439 8.2326Z" fill="black"/>
<path opacity="0.3" d="M6.23673 9.01898C5.94782 9.5967 5.58039 10.1317 5.14487 10.6087C4.79657 11.1549 4.37386 11.65 3.88895 12.0796C4.09167 11.4499 4.42737 10.8711 4.87331 10.3824C5.22806 9.83808 5.69242 9.37373 6.23673 9.01898Z" fill="black"/>
<path d="M6.66103 14.8403H6.59315L6.4008 14.7894C6.23108 14.7385 5.98782 14.6706 5.69364 14.5744C5.34566 14.4582 5.00387 14.3241 4.66965 14.1728C4.2652 13.9885 3.88515 13.7547 3.53819 13.4769C3.18689 13.1909 2.88987 12.8441 2.66132 12.453C2.47573 12.1351 2.34923 11.7863 2.28793 11.4233C2.2472 11.178 2.2472 10.9276 2.28793 10.6822C2.29795 10.6152 2.31308 10.549 2.33319 10.4842C2.33319 10.4389 2.33319 10.4163 2.33319 10.4163C2.33319 10.4163 2.33319 10.5125 2.29358 10.6822C2.25479 10.9239 2.25479 11.1703 2.29358 11.412C2.36146 11.7677 2.4917 12.1086 2.67829 12.419C2.91643 12.7986 3.22116 13.1321 3.5778 13.4034C3.92717 13.6777 4.30679 13.9112 4.70926 14.0992C5.08264 14.2746 5.42773 14.4047 5.72192 14.5122L6.41777 14.7442L6.61012 14.8121L6.66103 14.8403Z" fill="white"/>
<path d="M8.74291 14.9931C8.55491 15.0139 8.36518 15.0139 8.17718 14.9931C7.98737 14.9952 7.79784 14.9781 7.61145 14.9422C7.79928 14.9185 7.98935 14.9185 8.17718 14.9422C8.36708 14.9376 8.55689 14.9546 8.74291 14.9931Z" fill="white"/>
<path d="M3.34019 16.085C3.34019 16.085 3.29494 16.085 3.22705 16.0284C3.1301 15.9711 3.03745 15.9068 2.94984 15.836C2.66177 15.5972 2.41519 15.3124 2.22005 14.9931C2.02811 14.6734 1.89226 14.3233 1.81837 13.9578C1.79584 13.8477 1.78071 13.7362 1.77311 13.624C1.76581 13.5829 1.76581 13.5407 1.77311 13.4996C1.77311 13.4996 1.8014 13.6749 1.86363 13.9465C1.9527 14.3028 2.09376 14.644 2.28228 14.9592C2.47937 15.2754 2.72574 15.558 3.01207 15.7964C3.1931 15.9831 3.34585 16.0737 3.34019 16.085Z" fill="white"/>
<path d="M24.5098 8.77006C23.7574 5.87917 20.8609 0.589583 11.7696 1.05348C3.56081 1.47212 1.18475 5.48882 0.307863 8.54942C-0.218267 10.3824 1.13949 12.8886 2.77445 13.8673C5.03738 15.2251 7.86603 15.5305 10.4005 15.6946C13.8156 15.946 17.2486 15.6092 20.5497 14.6989C21.4921 14.4595 22.3599 13.9891 23.075 13.3303C23.7901 12.6716 24.3299 11.8451 24.6456 10.9255C24.7415 10.205 24.6954 9.47278 24.5098 8.77006Z" fill="#EB996E"/>
<path opacity="0.3" d="M8.16588 6.06586C8.02098 6.08814 7.88378 6.14572 7.76638 6.23352C7.64898 6.32133 7.55498 6.43666 7.49266 6.56936C7.4626 6.6116 7.44298 6.66036 7.43541 6.71164C7.42783 6.76293 7.43251 6.81528 7.44907 6.8644C7.46563 6.91353 7.4936 6.95803 7.53067 6.99427C7.56775 7.0305 7.61289 7.05743 7.66238 7.07286C7.8321 7.13509 8.05839 6.98234 8.13759 6.77868C8.19376 6.66904 8.22539 6.54848 8.23028 6.42538C8.23516 6.30229 8.21319 6.1796 8.16588 6.06586Z" fill="black"/>
<path opacity="0.3" d="M4.00774 6.93709C4.14975 6.97643 4.29922 6.9805 4.44316 6.94895C4.5871 6.9174 4.72117 6.85119 4.83371 6.75606C4.87797 6.72907 4.91533 6.69214 4.94284 6.6482C4.97035 6.60425 4.98724 6.55451 4.99218 6.5029C4.99712 6.4513 4.98998 6.39925 4.97131 6.35089C4.95264 6.30252 4.92296 6.25917 4.88462 6.22427C4.79724 6.16644 4.69195 6.14204 4.58804 6.15555C4.48413 6.16906 4.38858 6.21957 4.31889 6.29782C4.22444 6.37603 4.14782 6.47353 4.09415 6.58379C4.04049 6.69405 4.01102 6.81451 4.00774 6.93709Z" fill="black"/>
<path opacity="0.3" d="M9.03709 3.88216C8.90758 3.81234 8.76276 3.77579 8.61563 3.77579C8.4685 3.77579 8.32367 3.81234 8.19416 3.88216C8.14501 3.89897 8.10046 3.92701 8.06406 3.96407C8.02766 4.00113 8.00042 4.04616 7.98449 4.0956C7.96856 4.14504 7.96438 4.19752 7.9723 4.24886C7.98022 4.30019 8.00001 4.34897 8.03009 4.39131C8.10342 4.46522 8.2008 4.51041 8.30458 4.51872C8.40836 4.52702 8.51168 4.49788 8.59582 4.43657C8.70544 4.38204 8.80176 4.30414 8.878 4.20834C8.95424 4.11255 9.00855 4.00121 9.03709 3.88216Z" fill="black"/>
<path opacity="0.3" d="M12.1656 5.66418C12.1293 5.52343 12.0586 5.39391 11.9599 5.28726C11.8611 5.1806 11.7374 5.10017 11.5999 5.0532C11.5545 5.02815 11.5038 5.01422 11.4519 5.01256C11.4001 5.01089 11.3486 5.02154 11.3017 5.04362C11.2548 5.0657 11.2137 5.09859 11.182 5.13959C11.1502 5.18059 11.1286 5.22854 11.119 5.27949C11.0737 5.45487 11.2548 5.65853 11.4697 5.72076C11.583 5.76158 11.7038 5.77766 11.8238 5.7679C11.9438 5.75814 12.0604 5.72277 12.1656 5.66418Z" fill="black"/>
<path opacity="0.3" d="M10.1969 7.83093C10.0873 7.92904 10.0037 8.05264 9.95337 8.1908C9.90305 8.32895 9.88758 8.47739 9.90834 8.62296C9.90727 8.67509 9.91842 8.72675 9.94092 8.7738C9.96341 8.82084 9.99661 8.86196 10.0379 8.89386C10.0791 8.92577 10.1273 8.94756 10.1784 8.95749C10.2296 8.96743 10.2824 8.96523 10.3326 8.95108C10.4254 8.90591 10.4994 8.82968 10.5417 8.73563C10.5841 8.64158 10.5922 8.53566 10.5646 8.43626C10.552 8.31441 10.5125 8.19688 10.4489 8.09218C10.3853 7.98749 10.2992 7.89825 10.1969 7.83093Z" fill="black"/>
<path opacity="0.3" d="M14.1796 6.34872C14.095 6.46912 14.0415 6.60854 14.0237 6.7546C14.006 6.90066 14.0245 7.04884 14.0778 7.18601C14.0874 7.23696 14.109 7.2849 14.1408 7.3259C14.1725 7.3669 14.2135 7.39979 14.2605 7.42187C14.3074 7.44395 14.3589 7.4546 14.4107 7.45293C14.4625 7.45127 14.5132 7.43734 14.5586 7.4123C14.717 7.33875 14.7623 7.07286 14.6718 6.84657C14.6305 6.73298 14.5652 6.62967 14.4802 6.54374C14.3953 6.4578 14.2927 6.39127 14.1796 6.34872Z" fill="black"/>
<path opacity="0.3" d="M18.7677 8.52114C18.7198 8.38409 18.6391 8.26086 18.5326 8.16224C18.4261 8.06361 18.297 7.9926 18.1567 7.95541C18.1096 7.93377 18.0581 7.9234 18.0063 7.92511C17.9545 7.92682 17.9038 7.94058 17.8582 7.96528C17.8127 7.98998 17.7735 8.02496 17.7438 8.06743C17.7141 8.10991 17.6947 8.15871 17.6871 8.20999C17.6588 8.38536 17.8455 8.58337 18.0605 8.62863C18.1789 8.66486 18.3039 8.67401 18.4263 8.6554C18.5487 8.6368 18.6654 8.59091 18.7677 8.52114Z" fill="black"/>
<path opacity="0.3" d="M20.0971 6.50714C20.1325 6.36506 20.1324 6.21646 20.0969 6.07441C20.0614 5.93236 19.9916 5.80121 19.8935 5.69249C19.8663 5.648 19.829 5.61061 19.7845 5.58343C19.74 5.55625 19.6897 5.54005 19.6378 5.53618C19.5858 5.53231 19.5336 5.54088 19.4856 5.56118C19.4376 5.58147 19.3951 5.61291 19.3617 5.65289C19.3034 5.74144 19.2803 5.84863 19.297 5.95334C19.3138 6.05805 19.3692 6.15269 19.4522 6.21862C19.5312 6.31204 19.6301 6.38649 19.7418 6.43644C19.8534 6.48638 19.9749 6.51055 20.0971 6.50714Z" fill="black"/>
<path opacity="0.3" d="M16.5274 4.24419C16.6255 4.35372 16.7491 4.43735 16.8872 4.48768C17.0254 4.53801 17.1738 4.55348 17.3194 4.53272C17.3709 4.53354 17.4219 4.52243 17.4684 4.50025C17.5149 4.47807 17.5556 4.44543 17.5874 4.40488C17.6192 4.36433 17.6412 4.31698 17.6516 4.26653C17.662 4.21608 17.6606 4.1639 17.6475 4.11408C17.6053 4.01998 17.5306 3.94422 17.4371 3.9006C17.3437 3.85698 17.2376 3.84841 17.1384 3.87647C17.0159 3.88976 16.8979 3.92954 16.7924 3.99304C16.6869 4.05654 16.5964 4.14224 16.5274 4.24419Z" fill="black"/>
<path opacity="0.3" d="M11.6791 3.24287C11.7772 3.3524 11.9008 3.43603 12.0389 3.48636C12.1771 3.53669 12.3255 3.55216 12.4711 3.5314C12.523 3.53343 12.5746 3.52311 12.6217 3.5013C12.6688 3.47949 12.7101 3.44681 12.7421 3.40594C12.7742 3.36507 12.796 3.31718 12.806 3.26622C12.8159 3.21525 12.8136 3.16266 12.7992 3.11276C12.7596 2.93738 12.5107 2.83555 12.29 2.87515C12.1676 2.88844 12.0496 2.92822 11.944 2.99172C11.8385 3.05522 11.7481 3.14092 11.6791 3.24287Z" fill="black"/>
<path d="M8.16588 5.77167C8.02098 5.79395 7.88378 5.85153 7.76638 5.93933C7.64898 6.02714 7.55498 6.14247 7.49266 6.27517C7.4626 6.31741 7.44298 6.36617 7.43541 6.41745C7.42783 6.46874 7.43251 6.52109 7.44907 6.57021C7.46563 6.61934 7.4936 6.66384 7.53067 6.70008C7.56775 6.73631 7.61289 6.76324 7.66238 6.77867C7.8321 6.8409 8.05839 6.68815 8.13759 6.48449C8.19376 6.37485 8.22539 6.25429 8.23028 6.1312C8.23516 6.0081 8.21319 5.88541 8.16588 5.77167Z" fill="white"/>
<path d="M4.00774 6.64291C4.14975 6.68224 4.29922 6.68631 4.44316 6.65476C4.5871 6.62321 4.72117 6.557 4.83371 6.46187C4.87797 6.43488 4.91533 6.39795 4.94284 6.35401C4.97035 6.31006 4.98724 6.26032 4.99218 6.20871C4.99712 6.15711 4.98998 6.10506 4.97131 6.0567C4.95264 6.00833 4.92296 5.96498 4.88462 5.93008C4.79724 5.87225 4.69195 5.84786 4.58804 5.86136C4.48413 5.87487 4.38858 5.92538 4.31889 6.00363C4.22444 6.08184 4.14782 6.17935 4.09415 6.2896C4.04049 6.39986 4.01102 6.52032 4.00774 6.64291Z" fill="white"/>
<path d="M9.03709 3.58797C8.90758 3.51815 8.76276 3.4816 8.61563 3.4816C8.4685 3.4816 8.32367 3.51815 8.19416 3.58797C8.14501 3.60478 8.10046 3.63283 8.06406 3.66988C8.02766 3.70694 8.00042 3.75198 7.98449 3.80142C7.96856 3.85086 7.96438 3.90333 7.9723 3.95467C7.98022 4.006 8.00001 4.05478 8.03009 4.09713C8.10342 4.17103 8.2008 4.21622 8.30458 4.22453C8.40836 4.23283 8.51168 4.20369 8.59582 4.14238C8.70544 4.08785 8.80176 4.00995 8.878 3.91416C8.95424 3.81836 9.00855 3.70702 9.03709 3.58797Z" fill="white"/>
<path d="M12.1656 5.37567C12.1293 5.23492 12.0586 5.1054 11.9599 4.99874C11.8611 4.89209 11.7374 4.81166 11.5999 4.76468C11.5544 4.73963 11.5037 4.72571 11.4519 4.72405C11.4001 4.72238 11.3486 4.73303 11.3017 4.75511C11.2548 4.77719 11.2137 4.81008 11.182 4.85108C11.1502 4.89208 11.1286 4.94002 11.119 4.99097C11.0794 5.16635 11.2548 5.37001 11.4697 5.43224C11.583 5.47307 11.7038 5.48914 11.8238 5.47938C11.9438 5.46962 12.0604 5.43426 12.1656 5.37567Z" fill="white"/>
<path d="M10.1969 7.53677C10.0873 7.63488 10.0037 7.75848 9.95337 7.89664C9.90305 8.0348 9.88758 8.18323 9.90834 8.3288C9.90842 8.38056 9.92034 8.43161 9.94318 8.47806C9.96602 8.52451 9.99918 8.56511 10.0401 8.59678C10.0811 8.62844 10.1287 8.65032 10.1794 8.66075C10.2301 8.67117 10.2825 8.66986 10.3326 8.65692C10.4242 8.61194 10.4973 8.53663 10.5396 8.4438C10.5819 8.35098 10.5907 8.24636 10.5646 8.14776C10.5524 8.02503 10.5131 7.90653 10.4495 7.80085C10.3859 7.69518 10.2996 7.60497 10.1969 7.53677Z" fill="white"/>
<path d="M14.1853 6.05453C14.0993 6.17423 14.0445 6.31342 14.0257 6.45959C14.0069 6.60575 14.0248 6.75429 14.0778 6.89182C14.0874 6.94277 14.109 6.99071 14.1408 7.03171C14.1725 7.07271 14.2135 7.1056 14.2605 7.12768C14.3074 7.14977 14.3589 7.16041 14.4107 7.15875C14.4625 7.15708 14.5132 7.14316 14.5586 7.11811C14.6442 7.05464 14.7035 6.96203 14.7254 6.85779C14.7473 6.75355 14.7302 6.6449 14.6774 6.55238C14.6352 6.43934 14.5695 6.33653 14.4847 6.25072C14.3999 6.16491 14.2978 6.09805 14.1853 6.05453Z" fill="white"/>
<path d="M18.7677 8.20434C18.7198 8.06729 18.6391 7.94406 18.5326 7.84543C18.4261 7.74681 18.297 7.67579 18.1567 7.6386C18.1096 7.61697 18.0581 7.60659 18.0063 7.60831C17.9545 7.61002 17.9038 7.62377 17.8582 7.64847C17.8127 7.67318 17.7735 7.70815 17.7438 7.75063C17.7141 7.7931 17.6947 7.84191 17.6871 7.89318C17.6588 8.06856 17.8455 8.26656 18.0605 8.31182C18.1789 8.34805 18.3039 8.35721 18.4263 8.3386C18.5487 8.32 18.6654 8.27411 18.7677 8.20434Z" fill="white"/>
<path d="M20.0971 6.19598C20.1325 6.0539 20.1324 5.9053 20.0969 5.76325C20.0614 5.6212 19.9916 5.49005 19.8935 5.38133C19.8663 5.33684 19.829 5.29946 19.7845 5.27227C19.74 5.24509 19.6897 5.2289 19.6378 5.22503C19.5858 5.22116 19.5336 5.22972 19.4856 5.25002C19.4376 5.27031 19.3951 5.30175 19.3617 5.34173C19.3034 5.43028 19.2803 5.53747 19.297 5.64218C19.3138 5.74689 19.3692 5.84153 19.4522 5.90746C19.5312 6.00088 19.6301 6.07533 19.7418 6.12528C19.8534 6.17522 19.9749 6.19939 20.0971 6.19598Z" fill="white"/>
<path d="M16.5274 3.93307C16.6255 4.04259 16.7491 4.12623 16.8872 4.17655C17.0254 4.22688 17.1738 4.24235 17.3194 4.22159C17.3709 4.22241 17.4219 4.2113 17.4684 4.18912C17.5149 4.16694 17.5556 4.1343 17.5874 4.09375C17.6192 4.05321 17.6412 4.00586 17.6516 3.9554C17.662 3.90495 17.6606 3.85277 17.6475 3.80295C17.6053 3.70886 17.5306 3.63309 17.4371 3.58947C17.3437 3.54585 17.2376 3.53729 17.1384 3.56534C17.0159 3.57863 16.8979 3.61841 16.7924 3.68191C16.6869 3.74541 16.5964 3.83111 16.5274 3.93307Z" fill="white"/>
<path d="M11.6791 2.94869C11.7772 3.05821 11.9008 3.14184 12.0389 3.19217C12.1771 3.2425 12.3255 3.25797 12.4711 3.23721C12.523 3.23924 12.5746 3.22892 12.6217 3.20711C12.6688 3.1853 12.7101 3.15262 12.7421 3.11175C12.7742 3.07088 12.796 3.023 12.806 2.97203C12.8159 2.92106 12.8136 2.86847 12.7992 2.81857C12.7596 2.64319 12.5107 2.54136 12.29 2.58096C12.1676 2.59425 12.0496 2.63403 11.944 2.69753C11.8385 2.76103 11.7481 2.84673 11.6791 2.94869Z" fill="white"/>
<path d="M17.8286 15.3608H17.7777H17.6306C17.5004 15.3608 17.3081 15.4117 17.0648 15.44C16.5726 15.5079 15.8485 15.5871 14.9603 15.6494C14.0721 15.7116 13.0029 15.7512 11.8205 15.7399C11.2548 15.7399 10.6098 15.7399 9.97056 15.689C9.33128 15.638 8.66371 15.6211 7.98484 15.5305C7.30596 15.44 6.64972 15.3212 6.02176 15.1798C5.7106 15.1063 5.4051 15.0327 5.10527 14.9365C4.81661 14.8471 4.53329 14.7414 4.25667 14.6197C3.73988 14.4006 3.24382 14.1355 2.77446 13.8277C2.35567 13.573 1.97478 13.2607 1.64299 12.8999C1.17402 12.3674 0.805951 11.7539 0.556789 11.0896C0.459649 10.8486 0.380237 10.6009 0.319183 10.3484C0.319183 10.3484 0.319183 10.3484 0.319183 10.3994L0.364443 10.5408C0.404044 10.6653 0.466272 10.8463 0.556789 11.1065C0.817541 11.7609 1.18878 12.3656 1.65431 12.8942C1.98764 13.2486 2.3684 13.5551 2.78577 13.8051C3.25527 14.1077 3.74916 14.3708 4.26233 14.5914C4.53388 14.7046 4.82806 14.8121 5.11093 14.9026C5.41035 14.9971 5.71434 15.0764 6.02176 15.1402C6.64972 15.2816 7.3003 15.4061 7.97918 15.4909C8.65806 15.5758 9.31431 15.6154 9.95359 15.6494C10.5929 15.6833 11.2152 15.7003 11.8035 15.7059C12.9859 15.7059 14.0665 15.7059 14.9377 15.6267C15.8089 15.5475 16.55 15.4966 17.0479 15.44L17.6136 15.3778H17.7607L17.8286 15.3608Z" fill="#263238"/>
<path d="M20.9514 12.8716L20.7647 12.9621C20.6459 13.0187 20.4649 13.0922 20.2386 13.1771C19.0692 13.6128 17.8368 13.8554 16.5896 13.8956H16.0239H15.8146H16.0239H16.5896C17.2107 13.8621 17.8287 13.7865 18.4396 13.6693C19.0498 13.5491 19.6509 13.3866 20.2386 13.1828L20.7704 12.9904C20.8254 12.9432 20.8862 12.9033 20.9514 12.8716Z" fill="#263238"/>
<g opacity="0.3">
<path d="M6.70063 7.83093C6.79247 7.83283 6.88059 7.86752 6.94907 7.92874C7.01756 7.98996 7.06187 8.07366 7.07401 8.16471C7.07565 8.25668 7.04477 8.34627 6.98681 8.41768C6.92885 8.4891 6.84753 8.53775 6.7572 8.55507C6.66523 8.56255 6.57368 8.53622 6.49973 8.48102C6.42578 8.42582 6.37452 8.34554 6.35554 8.25523C6.34163 8.16418 6.36239 8.07123 6.41372 7.99476C6.46505 7.91829 6.54321 7.86386 6.63274 7.84225" fill="black"/>
</g>
<g opacity="0.3">
<path d="M6.69496 4.2442C6.76436 4.24199 6.83293 4.25977 6.89251 4.29544C6.95208 4.33111 7.00014 4.38315 7.03096 4.44537C7.06178 4.50758 7.07406 4.57735 7.06634 4.64635C7.05862 4.71535 7.03122 4.78068 6.98741 4.83455C6.9436 4.88841 6.88523 4.92854 6.81924 4.95016C6.75326 4.97178 6.68245 4.97397 6.61526 4.95647C6.54807 4.93897 6.48733 4.90252 6.44027 4.85146C6.39322 4.8004 6.36184 4.73689 6.34987 4.6685C6.33727 4.57763 6.35857 4.4853 6.4097 4.40913C6.46083 4.33296 6.53821 4.27828 6.62708 4.25552" fill="black"/>
</g>
<g opacity="0.3">
<path d="M20.6742 7.36139C20.8189 7.3752 20.9528 7.4442 21.048 7.55407C21.1432 7.66394 21.1925 7.80625 21.1855 7.95147C21.1786 8.09669 21.1161 8.23367 21.0109 8.334C20.9056 8.43432 20.7658 8.49029 20.6205 8.49029C20.4751 8.49029 20.3353 8.43432 20.23 8.334C20.1248 8.23367 20.0623 8.09669 20.0554 7.95147C20.0484 7.80625 20.0977 7.66394 20.1929 7.55407C20.2881 7.4442 20.422 7.3752 20.5667 7.36139" fill="black"/>
</g>
<g opacity="0.3">
<path d="M14.6322 3.80292C14.6956 3.81492 14.7532 3.84741 14.7964 3.8954C14.8395 3.94339 14.8656 4.00422 14.8707 4.06852C14.8759 4.13282 14.8597 4.19702 14.8248 4.25126C14.7899 4.30549 14.7381 4.34674 14.6774 4.36865C14.6021 4.37708 14.5264 4.35667 14.4655 4.31154C14.4047 4.2664 14.3631 4.1999 14.3493 4.12539C14.3386 4.05087 14.3557 3.97501 14.3975 3.91236C14.4393 3.84972 14.5027 3.8047 14.5756 3.78595" fill="black"/>
</g>
<g opacity="0.3">
<path d="M7.66225 8.86623C7.64533 8.87449 7.63032 8.88619 7.61817 8.90057C7.60602 8.91496 7.597 8.93172 7.59168 8.94978C7.58637 8.96784 7.58489 8.98682 7.58731 9.00549C7.58974 9.02416 7.59603 9.04212 7.60578 9.05823C7.61678 9.07339 7.63121 9.08574 7.6479 9.09425C7.66458 9.10276 7.68305 9.1072 7.70178 9.1072C7.72051 9.1072 7.73898 9.10276 7.75567 9.09425C7.77235 9.08574 7.78679 9.07339 7.79779 9.05823C7.83167 8.99047 7.73567 8.84364 7.66225 8.86623Z" fill="black"/>
</g>
<path d="M4.70927 3.44653L4.65269 3.48613L4.49429 3.58231L4.24536 3.74071L3.9229 3.96135C3.80976 4.04621 3.67964 4.14238 3.54952 4.24987C3.4194 4.35736 3.28362 4.47616 3.14219 4.60628C2.83839 4.88767 2.55482 5.19015 2.29359 5.51145C2.0375 5.83896 1.80317 6.18291 1.59209 6.54108C1.50157 6.70515 1.41105 6.86355 1.33751 7.0163C1.26396 7.16905 1.19608 7.31048 1.1395 7.44625C1.08293 7.58203 1.03767 7.70083 0.992409 7.80832C0.94715 7.91581 0.918865 8.00633 0.896236 8.08553L0.834005 8.26091C0.834005 8.30051 0.834012 8.32314 0.805725 8.32314C0.806927 8.30052 0.806927 8.27786 0.805725 8.25525L0.856639 8.07987C0.856639 8.00067 0.907557 7.9045 0.947158 7.79701C0.986759 7.68952 1.02635 7.5594 1.08293 7.42928C1.1395 7.29916 1.19607 7.14642 1.27527 6.99367C1.35448 6.84092 1.43368 6.67686 1.5242 6.50714C1.73326 6.14457 1.96966 5.79847 2.23136 5.47185C2.49448 5.14688 2.77993 4.84065 3.08562 4.55537C3.23271 4.43091 3.36848 4.30644 3.50426 4.20461C3.64003 4.10278 3.76449 4.00661 3.8833 3.92175C4.0021 3.83689 4.11525 3.769 4.21708 3.70677C4.31892 3.64454 4.39812 3.59928 4.47166 3.55968L4.63572 3.47482L4.70927 3.44653Z" fill="white"/>
<path d="M6.03307 2.85251C5.93492 2.93268 5.824 2.99578 5.70495 3.0392C5.5126 3.12972 5.3542 3.18629 5.34854 3.16366C5.44433 3.08012 5.55591 3.01663 5.67667 2.97697C5.78705 2.91445 5.90777 2.87229 6.03307 2.85251Z" fill="white"/>
</svg>
